<?xml version="1.0" encoding="UTF-8" standalone="no"?>
<svg
   inkscape:export-ydpi="96"
   inkscape:export-xdpi="96"
   inkscape:export-filename="/home/lliurex/Desarrollo/lliurex-onedrive/install/rsrc/lliurex-onedrive.png"
   sodipodi:docname="lliurex-onedrive.svg"
   inkscape:version="1.1 (1:1.1+202105261517+ce6663b3b7)"
   id="svg8"
   version="1.1"
   viewBox="0 0 211.66666 31.750001"
   height="120"
   width="800"
   xmlns:inkscape="http://www.inkscape.org/namespaces/inkscape"
   xmlns:sodipodi="http://sodipodi.sourceforge.net/DTD/sodipodi-0.dtd"
   xmlns="http://www.w3.org/2000/svg"
   xmlns:svg="http://www.w3.org/2000/svg"
   xmlns:rdf="http://www.w3.org/1999/02/22-rdf-syntax-ns#"
   xmlns:cc="http://creativecommons.org/ns#"
   xmlns:dc="http://purl.org/dc/elements/1.1/">
  <defs
     id="defs2" />
  <sodipodi:namedview
     inkscape:document-rotation="0"
     inkscape:guide-bbox="true"
     showguides="true"
     inkscape:window-maximized="1"
     inkscape:window-y="0"
     inkscape:window-x="0"
     inkscape:window-height="879"
     inkscape:window-width="1920"
     inkscape:snap-nodes="false"
     borderlayer="true"
     units="px"
     showgrid="false"
     inkscape:current-layer="layer1"
     inkscape:document-units="mm"
     inkscape:cy="139.99999"
     inkscape:cx="-202.99999"
     inkscape:zoom="0.50000003"
     inkscape:pageshadow="2"
     inkscape:pageopacity="0.0"
     borderopacity="1.0"
     bordercolor="#666666"
     pagecolor="#ffffff"
     id="base"
     inkscape:pagecheckerboard="0"
     width="800px">
    <sodipodi:guide
       inkscape:locked="false"
       id="guide4539"
       orientation="1,0"
       position="-15.015104,23.481771" />
    <sodipodi:guide
       inkscape:locked="false"
       id="guide4561"
       orientation="0,1"
       position="138.69486,-12.494368" />
    <sodipodi:guide
       inkscape:locked="false"
       id="guide4563"
       orientation="-0.70710678,0.70710678"
       position="4.1159507,52.759004" />
    <sodipodi:guide
       inkscape:locked="false"
       id="guide4772"
       orientation="0,1"
       position="107.57598,5.2384828" />
  </sodipodi:namedview>
  <metadata
     id="metadata5">
    <rdf:RDF>
      <cc:Work
         rdf:about="">
        <dc:format>image/svg+xml</dc:format>
        <dc:type
           rdf:resource="http://purl.org/dc/dcmitype/StillImage" />
      </cc:Work>
    </rdf:RDF>
  </metadata>
  <g
     transform="translate(0,-265.24998)"
     id="layer1"
     inkscape:groupmode="layer"
     inkscape:label="Capa 1">
    <rect
       style="opacity:1;fill:#000000;fill-opacity:1;stroke-width:0.299463"
       id="rect1251"
       width="221.58998"
       height="33.542339"
       x="-0.66856426"
       y="264.63412"
       inkscape:export-filename="/home/lliurex/Desarrollo/lliurex-onedrive/install/rsrc/lliurex-onedrive.png"
       inkscape:export-xdpi="96"
       inkscape:export-ydpi="96" />
    <g
       style="fill:#000000;fill-opacity:1"
       transform="matrix(0.46526735,0,0,0.46526735,-6.555094,198.76185)"
       id="g1957">
      <path
         inkscape:connector-curvature="0"
         style="fill:#000000;fill-opacity:1;stroke-width:0.264583"
         d="m -255.74248,354.73778 c -4.88932,-1.22166 -7.61324,-5.10811 -7.62186,-10.87473 -0.003,-1.84365 0.13064,-2.72704 0.59084,-3.91285 1.12809,-2.90675 4.11474,-5.0997 8.04482,-5.90689 1.95559,-0.40166 2.55807,-0.83291 2.55807,-1.83108 0,-0.31321 0.23276,-1.24597 0.51721,-2.07279 1.29233,-3.7562 3.68506,-6.88749 6.24184,-8.16842 2.67589,-1.34063 4.02688,-1.64296 7.26387,-1.62558 4.59719,0.0247 6.89073,1.02191 10.09859,4.3908 l 1.76421,1.85279 1.58049,-0.54695 c 7.64932,-2.64721 15.27493,1.85905 15.88961,9.38978 l 0.16814,2.06012 1.50633,0.5397 c 4.30183,1.5413 6.32383,4.77781 5.95728,9.53553 -0.23972,3.11136 -1.69445,5.59544 -3.999,6.82861 l -1.08339,0.57973 -24.07705,0.0464 c -18.502,0.0357 -24.38342,-0.0301 -25.4,-0.28416 z"
         id="path4256" />
      <path
         inkscape:connector-curvature="0"
         style="fill:#000000;fill-opacity:1;stroke-width:0.264583"
         d="m -273.79199,351.41171 c -2.85433,-0.67835 -5.87878,-3.1994 -7.29702,-6.08248 -0.8045,-1.63544 -0.84723,-1.87598 -0.84723,-4.76924 0,-2.75194 0.0687,-3.19343 0.7091,-4.55985 1.35011,-2.88056 3.93692,-4.96194 7.18259,-5.77921 0.68499,-0.17248 1.32864,-0.44778 1.43034,-0.61178 0.10171,-0.16401 0.21469,-1.05742 0.25106,-1.98536 0.22593,-5.76313 4.00726,-10.84112 9.28726,-12.47194 2.85254,-0.88106 6.43623,-0.66434 9.53889,0.57687 0.98404,0.39367 0.87324,0.47807 2.95389,-2.25015 1.23047,-1.61346 3.71679,-3.62009 5.75196,-4.64226 2.19647,-1.10318 4.48083,-1.61142 7.21263,-1.60472 7.63516,0.0187 14.2154,4.79443 16.64864,12.083 0.77742,2.32875 0.73866,2.98094 -0.17833,3.00016 -0.40018,0.008 -1.54681,0.22877 -2.54807,0.48974 l -1.82047,0.47448 -1.66113,-1.66111 c -4.6836,-4.6836 -12.32731,-5.69593 -18.82524,-2.49321 -2.59596,1.27951 -4.68201,3.11641 -6.25771,5.51029 -1.12334,1.70665 -2.55561,4.89047 -2.55561,5.68094 0,0.56078 -0.45408,0.84101 -2.39332,1.47698 -6.00395,1.96898 -9.50831,6.51621 -9.50589,12.33477 8e-4,2.11777 0.54624,4.70912 1.3034,6.19328 0.28543,0.55948 0.44469,1.09151 0.35391,1.18229 -0.23216,0.23216 -7.70102,0.15391 -8.73365,-0.0915 z"
         id="path4248" />
      <g
         transform="matrix(0.26458333,0,0,0.26458333,-144.74979,257.91747)"
         style="font-style:normal;font-variant:normal;font-weight:normal;font-stretch:normal;font-size:180px;line-height:125%;font-family:'Segoe UI';-inkscape-font-specification:'Segoe UI';letter-spacing:0px;word-spacing:0px;fill:#000000;fill-opacity:1;stroke:none"
         id="text3027">
        <path
           inkscape:connector-curvature="0"
           d="m -111.31859,348.11145 c -17.87114,0 -32.18265,-5.88867 -42.93457,-17.66602 -10.75197,-11.77731 -16.12794,-27.09956 -16.12793,-45.96679 -1e-5,-20.27336 5.4785,-36.44522 16.43555,-48.51563 10.95699,-12.07019 25.86909,-18.10534 44.73633,-18.10547 17.402254,1.3e-4 31.420794,5.8595 42.055661,17.57813 10.634643,11.71885 15.952021,27.0411 15.952148,45.9668 -1.27e-4,20.56645 -5.44934,36.8262 -16.347656,48.77929 -10.898538,11.95313 -25.488367,17.92969 -43.769533,17.92969 z m 1.05469,-116.89453 c -13.24224,1.1e-4 -23.99419,4.7755 -32.25586,14.32617 -8.26175,9.55087 -12.3926,22.08992 -12.39258,37.61719 -2e-5,15.52739 4.02829,28.02249 12.08496,37.48535 8.0566,9.46291 18.55952,14.19435 31.50879,14.19434 13.828046,1e-5 24.726472,-4.51171 32.695314,-13.53516 7.968642,-9.0234 11.953013,-21.65034 11.953125,-37.88086 -1.12e-4,-16.64055 -3.867295,-29.50186 -11.601562,-38.58398 -7.734468,-9.08193 -18.39852,-13.62294 -31.992187,-13.62305 z"
           style="font-family:'Segoe UI';-inkscape-font-specification:'Segoe UI';fill:#000000;fill-opacity:1"
           id="path3010" />
        <path
           inkscape:connector-curvature="0"
           d="M 46.357193,346.00208 H 31.94313 v -51.32813 c -7.4e-5,-19.10149 -6.972724,-28.65226 -20.917968,-28.65234 -7.2070783,8e-5 -13.1689864,2.71003 -17.8857424,8.12988 -4.7168286,5.41999 -7.0752246,12.2608 -7.0751956,20.52246 v 51.32813 h -14.414062 v -90 h 14.414062 v 14.9414 h 0.351563 c 6.7968386,-11.3671 16.6405787,-17.05069 29.53125,-17.05078 9.843681,9e-5 17.37297,3.1788 22.58789,9.53613 5.214757,6.3575 7.822177,15.54206 7.822266,27.55371 z"
           style="font-family:'Segoe UI';-inkscape-font-specification:'Segoe UI';fill:#000000;fill-opacity:1"
           id="path3012" />
        <path
           inkscape:connector-curvature="0"
           d="M 145.93727,304.60559 H 82.392349 c 0.234352,10.01956 2.929661,17.75393 8.085938,23.20313 5.156213,5.44923 12.246053,8.17383 21.269533,8.17382 10.13665,1e-5 19.45305,-3.33983 27.94922,-10.01953 v 13.53516 c -7.91023,5.74219 -18.36921,8.61328 -31.37696,8.61328 -12.714877,0 -22.705101,-4.08691 -29.9707,-12.26074 -7.265637,-8.17381 -10.898445,-19.67282 -10.898437,-34.49707 -8e-6,-14.00385 3.969714,-25.41497 11.90918,-34.2334 7.939425,-8.81827 17.797813,-13.22745 29.575197,-13.22754 11.77728,9e-5 20.8886,3.80868 27.33398,11.42578 6.44523,7.61726 9.66788,18.19342 9.66797,31.72852 z m -14.76562,-12.2168 c -0.0587,-8.32025 -2.0655,-14.79485 -6.02051,-19.42382 -3.95514,-4.62883 -9.4483,-6.94328 -16.47949,-6.94336 -6.79692,8e-5 -12.5684,2.43171 -17.314457,7.29492 -4.746121,4.86335 -7.675806,11.22076 -8.789063,19.07226 z"
           style="font-family:'Segoe UI';-inkscape-font-specification:'Segoe UI';fill:#000000;fill-opacity:1"
           id="path3014" />
        <path
           inkscape:connector-curvature="0"
           d="M 169.75563,346.00208 V 219.96692 h 34.80469 c 44.41396,1.2e-4 66.62097,20.47862 66.62109,61.43555 -1.2e-4,19.45317 -6.1671,35.08303 -18.50097,46.88964 -12.33408,11.80665 -28.84285,17.70997 -49.52637,17.70997 z m 14.76563,-112.67579 v 99.31641 h 18.80859 c 16.52337,1e-5 29.38469,-4.42381 38.58398,-13.27148 9.19912,-8.84762 13.79873,-21.38667 13.79883,-37.61719 -1e-4,-32.28506 -17.16805,-48.42762 -51.5039,-48.42774 z"
           style="font-family:'Segoe UI';-inkscape-font-specification:'Segoe UI';fill:#000000;fill-opacity:1"
           id="path3016" />
        <path
           inkscape:connector-curvature="0"
           d="m 340.96657,270.59192 c -2.51959,-1.93352 -6.1524,-2.90031 -10.89844,-2.90039 -6.15239,8e-5 -11.29398,2.90046 -15.4248,8.70117 -4.13089,5.80085 -6.19632,13.71099 -6.19629,23.73047 v 45.87891 h -14.41407 v -90 h 14.41407 V 274.547 h 0.35156 c 2.05075,-6.32805 5.18551,-11.26457 9.4043,-14.80957 4.2187,-3.54484 8.9355,-5.31729 14.15039,-5.31739 3.74994,1e-4 6.62103,0.41025 8.61328,1.23047 z"
           style="font-family:'Segoe UI';-inkscape-font-specification:'Segoe UI';fill:#000000;fill-opacity:1"
           id="path3018" />
        <path
           inkscape:connector-curvature="0"
           d="m 363.99391,233.15051 c -2.57814,1.2e-4 -4.77541,-0.87879 -6.5918,-2.63672 -1.81641,-1.75769 -2.72462,-3.98425 -2.7246,-6.67968 -2e-5,-2.69519 0.90819,-4.9364 2.7246,-6.72364 1.81639,-1.78698 4.01366,-2.68053 6.5918,-2.68066 2.6367,1.3e-4 4.8779,0.89368 6.72363,2.68066 1.84568,1.78724 2.76853,4.02845 2.76856,6.72364 -3e-5,2.57824 -0.92288,4.7755 -2.76856,6.59179 -1.84573,1.81652 -4.08693,2.72473 -6.72363,2.72461 z m 7.03125,112.85157 H 356.6111 v -90 h 14.41406 z"
           style="font-family:'Segoe UI';-inkscape-font-specification:'Segoe UI';fill:#000000;fill-opacity:1"
           id="path3020" />
        <path
           inkscape:connector-curvature="0"
           d="m 470.9568,256.00208 -35.85937,90 h -14.15039 l -34.10157,-90 h 15.82032 l 22.85156,65.39062 c 1.69918,4.80471 2.75386,8.99416 3.16406,12.56836 h 0.35156 c 0.5859,-4.5117 1.5234,-8.58396 2.8125,-12.2168 l 23.90625,-65.74218 z"
           style="font-family:'Segoe UI';-inkscape-font-specification:'Segoe UI';fill:#000000;fill-opacity:1"
           id="path3022" />
        <path
           inkscape:connector-curvature="0"
           d="m 558.67165,304.60559 h -63.54493 c 0.23436,10.01956 2.92967,17.75393 8.08594,23.20313 5.15622,5.44923 12.24605,8.17383 21.26953,8.17382 10.13666,1e-5 19.45306,-3.33983 27.94922,-10.01953 v 13.53516 c -7.91023,5.74219 -18.3692,8.61328 -31.37695,8.61328 -12.71488,0 -22.70511,-4.08691 -29.9707,-12.26074 -7.26564,-8.17381 -10.89845,-19.67282 -10.89844,-34.49707 -10e-6,-14.00385 3.96971,-25.41497 11.90918,-34.2334 7.93942,-8.81827 17.79781,-13.22745 29.57519,-13.22754 11.77729,9e-5 20.8886,3.80868 27.33399,11.42578 6.44523,7.61726 9.66788,18.19342 9.66797,31.72852 z m -14.76563,-12.2168 c -0.0587,-8.32025 -2.0655,-14.79485 -6.02051,-19.42382 -3.95514,-4.62883 -9.4483,-6.94328 -16.47949,-6.94336 -6.79692,8e-5 -12.5684,2.43171 -17.31445,7.29492 -4.74612,4.86335 -7.67581,11.22076 -8.78906,19.07226 z"
           style="font-family:'Segoe UI';-inkscape-font-specification:'Segoe UI';fill:#000000;fill-opacity:1"
           id="path3024" />
      </g>
    </g>
    <g
       id="g890"
       transform="translate(13.229167)">
      <g
         id="g1227"
         transform="translate(8.6092639)">
        <g
           id="g1505"
           transform="translate(-1.058334)">
          <g
             style="font-style:normal;font-variant:normal;font-weight:normal;font-stretch:normal;font-size:180px;line-height:125%;font-family:'Segoe UI';-inkscape-font-specification:'Segoe UI';letter-spacing:0px;word-spacing:0px;fill:#ffffff;fill-opacity:1;stroke:none"
             id="text3027-3"
             transform="matrix(0.12302951,0,0,0.12302951,81.418576,246.52039)">
            <path
               d="m -111.31859,348.11145 c -17.87114,0 -32.18265,-5.88867 -42.93457,-17.66602 -10.75197,-11.77731 -16.12794,-27.09956 -16.12793,-45.96679 -1e-5,-20.27336 5.4785,-36.44522 16.43555,-48.51563 10.95699,-12.07019 25.86909,-18.10534 44.73633,-18.10547 17.402254,1.3e-4 31.420794,5.8595 42.055661,17.57813 10.634643,11.71885 15.952021,27.0411 15.952148,45.9668 -1.27e-4,20.56645 -5.44934,36.8262 -16.347656,48.77929 -10.898538,11.95313 -25.488367,17.92969 -43.769533,17.92969 z m 1.05469,-116.89453 c -13.24224,1.1e-4 -23.99419,4.7755 -32.25586,14.32617 -8.26175,9.55087 -12.3926,22.08992 -12.39258,37.61719 -2e-5,15.52739 4.02829,28.02249 12.08496,37.48535 8.0566,9.46291 18.55952,14.19435 31.50879,14.19434 13.828046,1e-5 24.726472,-4.51171 32.695314,-13.53516 7.968642,-9.0234 11.953013,-21.65034 11.953125,-37.88086 -1.12e-4,-16.64055 -3.867295,-29.50186 -11.601562,-38.58398 -7.734468,-9.08193 -18.39852,-13.62294 -31.992187,-13.62305 z"
               style="font-family:'Segoe UI';-inkscape-font-specification:'Segoe UI';fill:#ffffff"
               id="path3010-6"
               inkscape:connector-curvature="0" />
            <path
               d="M 46.357193,346.00208 H 31.94313 v -51.32813 c -7.4e-5,-19.10149 -6.972724,-28.65226 -20.917968,-28.65234 -7.2070783,8e-5 -13.1689864,2.71003 -17.8857424,8.12988 -4.7168286,5.41999 -7.0752246,12.2608 -7.0751956,20.52246 v 51.32813 h -14.414062 v -90 h 14.414062 v 14.9414 h 0.351563 c 6.7968386,-11.3671 16.6405787,-17.05069 29.53125,-17.05078 9.843681,9e-5 17.37297,3.1788 22.58789,9.53613 5.214757,6.3575 7.822177,15.54206 7.822266,27.55371 z"
               style="font-family:'Segoe UI';-inkscape-font-specification:'Segoe UI';fill:#ffffff"
               id="path3012-7"
               inkscape:connector-curvature="0" />
            <path
               d="M 145.93727,304.60559 H 82.392349 c 0.234352,10.01956 2.929661,17.75393 8.085938,23.20313 5.156213,5.44923 12.246053,8.17383 21.269533,8.17382 10.13665,1e-5 19.45305,-3.33983 27.94922,-10.01953 v 13.53516 c -7.91023,5.74219 -18.36921,8.61328 -31.37696,8.61328 -12.714877,0 -22.705101,-4.08691 -29.9707,-12.26074 -7.265637,-8.17381 -10.898445,-19.67282 -10.898437,-34.49707 -8e-6,-14.00385 3.969714,-25.41497 11.90918,-34.2334 7.939425,-8.81827 17.797813,-13.22745 29.575197,-13.22754 11.77728,9e-5 20.8886,3.80868 27.33398,11.42578 6.44523,7.61726 9.66788,18.19342 9.66797,31.72852 z m -14.76562,-12.2168 c -0.0587,-8.32025 -2.0655,-14.79485 -6.02051,-19.42382 -3.95514,-4.62883 -9.4483,-6.94328 -16.47949,-6.94336 -6.79692,8e-5 -12.5684,2.43171 -17.314457,7.29492 -4.746121,4.86335 -7.675806,11.22076 -8.789063,19.07226 z"
               style="font-family:'Segoe UI';-inkscape-font-specification:'Segoe UI';fill:#ffffff"
               id="path3014-5"
               inkscape:connector-curvature="0" />
            <path
               d="M 169.75563,346.00208 V 219.96692 h 34.80469 c 44.41396,1.2e-4 66.62097,20.47862 66.62109,61.43555 -1.2e-4,19.45317 -6.1671,35.08303 -18.50097,46.88964 -12.33408,11.80665 -28.84285,17.70997 -49.52637,17.70997 z m 14.76563,-112.67579 v 99.31641 h 18.80859 c 16.52337,1e-5 29.38469,-4.42381 38.58398,-13.27148 9.19912,-8.84762 13.79873,-21.38667 13.79883,-37.61719 -1e-4,-32.28506 -17.16805,-48.42762 -51.5039,-48.42774 z"
               style="font-family:'Segoe UI';-inkscape-font-specification:'Segoe UI';fill:#ffffff"
               id="path3016-3"
               inkscape:connector-curvature="0" />
            <path
               d="m 340.96657,270.59192 c -2.51959,-1.93352 -6.1524,-2.90031 -10.89844,-2.90039 -6.15239,8e-5 -11.29398,2.90046 -15.4248,8.70117 -4.13089,5.80085 -6.19632,13.71099 -6.19629,23.73047 v 45.87891 h -14.41407 v -90 h 14.41407 V 274.547 h 0.35156 c 2.05075,-6.32805 5.18551,-11.26457 9.4043,-14.80957 4.2187,-3.54484 8.9355,-5.31729 14.15039,-5.31739 3.74994,1e-4 6.62103,0.41025 8.61328,1.23047 z"
               style="font-family:'Segoe UI';-inkscape-font-specification:'Segoe UI';fill:#ffffff"
               id="path3018-5"
               inkscape:connector-curvature="0" />
            <path
               d="m 363.99391,233.15051 c -2.57814,1.2e-4 -4.77541,-0.87879 -6.5918,-2.63672 -1.81641,-1.75769 -2.72462,-3.98425 -2.7246,-6.67968 -2e-5,-2.69519 0.90819,-4.9364 2.7246,-6.72364 1.81639,-1.78698 4.01366,-2.68053 6.5918,-2.68066 2.6367,1.3e-4 4.8779,0.89368 6.72363,2.68066 1.84568,1.78724 2.76853,4.02845 2.76856,6.72364 -3e-5,2.57824 -0.92288,4.7755 -2.76856,6.59179 -1.84573,1.81652 -4.08693,2.72473 -6.72363,2.72461 z m 7.03125,112.85157 H 356.6111 v -90 h 14.41406 z"
               style="font-family:'Segoe UI';-inkscape-font-specification:'Segoe UI';fill:#ffffff"
               id="path3020-6"
               inkscape:connector-curvature="0" />
            <path
               d="m 470.9568,256.00208 -35.85937,90 h -14.15039 l -34.10157,-90 h 15.82032 l 22.85156,65.39062 c 1.69918,4.80471 2.75386,8.99416 3.16406,12.56836 h 0.35156 c 0.5859,-4.5117 1.5234,-8.58396 2.8125,-12.2168 l 23.90625,-65.74218 z"
               style="font-family:'Segoe UI';-inkscape-font-specification:'Segoe UI';fill:#ffffff"
               id="path3022-2"
               inkscape:connector-curvature="0" />
            <path
               d="m 558.67165,304.60559 h -63.54493 c 0.23436,10.01956 2.92967,17.75393 8.08594,23.20313 5.15622,5.44923 12.24605,8.17383 21.26953,8.17382 10.13666,1e-5 19.45306,-3.33983 27.94922,-10.01953 v 13.53516 c -7.91023,5.74219 -18.3692,8.61328 -31.37695,8.61328 -12.71488,0 -22.70511,-4.08691 -29.9707,-12.26074 -7.26564,-8.17381 -10.89845,-19.67282 -10.89844,-34.49707 -10e-6,-14.00385 3.96971,-25.41497 11.90918,-34.2334 7.93942,-8.81827 17.79781,-13.22745 29.57519,-13.22754 11.77729,9e-5 20.8886,3.80868 27.33399,11.42578 6.44523,7.61726 9.66788,18.19342 9.66797,31.72852 z m -14.76563,-12.2168 c -0.0587,-8.32025 -2.0655,-14.79485 -6.02051,-19.42382 -3.95514,-4.62883 -9.4483,-6.94328 -16.47949,-6.94336 -6.79692,8e-5 -12.5684,2.43171 -17.31445,7.29492 -4.74612,4.86335 -7.67581,11.22076 -8.78906,19.07226 z"
               style="font-family:'Segoe UI';-inkscape-font-specification:'Segoe UI';fill:#ffffff"
               id="path3024-9"
               inkscape:connector-curvature="0" />
          </g>
          <g
             id="STYLE_COLOR_1_"
             transform="matrix(0.03420445,0,0,0.038309,19.954803,268.48451)">
            <path
               fill="#0364b8"
               d="M 622.292,445.338 834.905,242.011 C 790.741,69.804 615.338,-33.996 443.13,10.168 365.58,30.056 298.224,78.13 254.209,145.005 257.5,144.922 622.292,445.338 622.292,445.338 Z"
               id="path1148" />
            <path
               fill="#0078d4"
               d="m 392.776,183.283 -0.01,0.035 c -40.626,-25.162 -87.479,-38.462 -135.267,-38.397 -1.104,0 -2.189,0.07 -3.291,0.083 C 112.064,146.765 -1.74,263.423 0.02,405.567 0.658,457.129 16.769,507.31 46.264,549.607 L 364.792,509.713 609.001,312.798 Z"
               id="path1150" />
            <path
               fill="#1490df"
               d="m 834.905,242.012 c -4.674,-0.312 -9.371,-0.528 -14.123,-0.528 -28.523,-0.028 -56.749,5.798 -82.93,17.117 l -0.006,-0.022 -128.844,54.22 142.041,175.456 253.934,61.728 c 54.799,-101.732 16.752,-228.625 -84.98,-283.424 -26.287,-14.16 -55.301,-22.529 -85.091,-24.546 v -0.001 z"
               id="path1152" />
            <path
               fill="#28a8ea"
               d="M 46.264,549.607 C 94.359,618.756 173.27,659.966 257.5,659.922 h 563.281 c 76.946,0.022 147.691,-42.202 184.195,-109.937 L 609.001,312.798 Z"
               id="path1154" />
          </g>
        </g>
      </g>
    </g>
  </g>
  <script
     id="mesh_polyfill"
     type="text/javascript">
!function(){const t=&quot;http://www.w3.org/2000/svg&quot;,e=&quot;http://www.w3.org/1999/xlink&quot;,s=&quot;http://www.w3.org/1999/xhtml&quot;,r=2;if(document.createElementNS(t,&quot;meshgradient&quot;).x)return;const n=(t,e,s,r)=&gt;{let n=new x(.5*(e.x+s.x),.5*(e.y+s.y)),o=new x(.5*(t.x+e.x),.5*(t.y+e.y)),i=new x(.5*(s.x+r.x),.5*(s.y+r.y)),a=new x(.5*(n.x+o.x),.5*(n.y+o.y)),h=new x(.5*(n.x+i.x),.5*(n.y+i.y)),l=new x(.5*(a.x+h.x),.5*(a.y+h.y));return[[t,o,a,l],[l,h,i,r]]},o=t=&gt;{let e=t[0].distSquared(t[1]),s=t[2].distSquared(t[3]),r=.25*t[0].distSquared(t[2]),n=.25*t[1].distSquared(t[3]),o=e&gt;s?e:s,i=r&gt;n?r:n;return 18*(o&gt;i?o:i)},i=(t,e)=&gt;Math.sqrt(t.distSquared(e)),a=(t,e)=&gt;t.scale(2/3).add(e.scale(1/3)),h=t=&gt;{let e,s,r,n,o,i,a,h=new g;return t.match(/(\w+\(\s*[^)]+\))+/g).forEach(t=&gt;{let l=t.match(/[\w.-]+/g),d=l.shift();switch(d){case&quot;translate&quot;:2===l.length?e=new g(1,0,0,1,l[0],l[1]):(console.error(&quot;mesh.js: translate does not have 2 arguments!&quot;),e=new g(1,0,0,1,0,0)),h=h.append(e);break;case&quot;scale&quot;:1===l.length?s=new g(l[0],0,0,l[0],0,0):2===l.length?s=new g(l[0],0,0,l[1],0,0):(console.error(&quot;mesh.js: scale does not have 1 or 2 arguments!&quot;),s=new g(1,0,0,1,0,0)),h=h.append(s);break;case&quot;rotate&quot;:if(3===l.length&amp;&amp;(e=new g(1,0,0,1,l[1],l[2]),h=h.append(e)),l[0]){r=l[0]*Math.PI/180;let t=Math.cos(r),e=Math.sin(r);Math.abs(t)&lt;1e-16&amp;&amp;(t=0),Math.abs(e)&lt;1e-16&amp;&amp;(e=0),a=new g(t,e,-e,t,0,0),h=h.append(a)}else console.error(&quot;math.js: No argument to rotate transform!&quot;);3===l.length&amp;&amp;(e=new g(1,0,0,1,-l[1],-l[2]),h=h.append(e));break;case&quot;skewX&quot;:l[0]?(r=l[0]*Math.PI/180,n=Math.tan(r),o=new g(1,0,n,1,0,0),h=h.append(o)):console.error(&quot;math.js: No argument to skewX transform!&quot;);break;case&quot;skewY&quot;:l[0]?(r=l[0]*Math.PI/180,n=Math.tan(r),i=new g(1,n,0,1,0,0),h=h.append(i)):console.error(&quot;math.js: No argument to skewY transform!&quot;);break;case&quot;matrix&quot;:6===l.length?h=h.append(new g(...l)):console.error(&quot;math.js: Incorrect number of arguments for matrix!&quot;);break;default:console.error(&quot;mesh.js: Unhandled transform type: &quot;+d)}}),h},l=t=&gt;{let e=[],s=t.split(/[ ,]+/);for(let t=0,r=s.length-1;t&lt;r;t+=2)e.push(new x(parseFloat(s[t]),parseFloat(s[t+1])));return e},d=(t,e)=&gt;{for(let s in e)t.setAttribute(s,e[s])},c=(t,e,s,r,n)=&gt;{let o,i,a=[0,0,0,0];for(let h=0;h&lt;3;++h)e[h]&lt;t[h]&amp;&amp;e[h]&lt;s[h]||t[h]&lt;e[h]&amp;&amp;s[h]&lt;e[h]?a[h]=0:(a[h]=.5*((e[h]-t[h])/r+(s[h]-e[h])/n),o=Math.abs(3*(e[h]-t[h])/r),i=Math.abs(3*(s[h]-e[h])/n),a[h]&gt;o?a[h]=o:a[h]&gt;i&amp;&amp;(a[h]=i));return a},u=[[1,0,0,0,0,0,0,0,0,0,0,0,0,0,0,0],[0,0,0,0,1,0,0,0,0,0,0,0,0,0,0,0],[-3,3,0,0,-2,-1,0,0,0,0,0,0,0,0,0,0],[2,-2,0,0,1,1,0,0,0,0,0,0,0,0,0,0],[0,0,0,0,0,0,0,0,1,0,0,0,0,0,0,0],[0,0,0,0,0,0,0,0,0,0,0,0,1,0,0,0],[0,0,0,0,0,0,0,0,-3,3,0,0,-2,-1,0,0],[0,0,0,0,0,0,0,0,2,-2,0,0,1,1,0,0],[-3,0,3,0,0,0,0,0,-2,0,-1,0,0,0,0,0],[0,0,0,0,-3,0,3,0,0,0,0,0,-2,0,-1,0],[9,-9,-9,9,6,3,-6,-3,6,-6,3,-3,4,2,2,1],[-6,6,6,-6,-3,-3,3,3,-4,4,-2,2,-2,-2,-1,-1],[2,0,-2,0,0,0,0,0,1,0,1,0,0,0,0,0],[0,0,0,0,2,0,-2,0,0,0,0,0,1,0,1,0],[-6,6,6,-6,-4,-2,4,2,-3,3,-3,3,-2,-1,-2,-1],[4,-4,-4,4,2,2,-2,-2,2,-2,2,-2,1,1,1,1]],f=t=&gt;{let e=[];for(let s=0;s&lt;16;++s){e[s]=0;for(let r=0;r&lt;16;++r)e[s]+=u[s][r]*t[r]}return e},p=(t,e,s)=&gt;{const r=e*e,n=s*s,o=e*e*e,i=s*s*s;return t[0]+t[1]*e+t[2]*r+t[3]*o+t[4]*s+t[5]*s*e+t[6]*s*r+t[7]*s*o+t[8]*n+t[9]*n*e+t[10]*n*r+t[11]*n*o+t[12]*i+t[13]*i*e+t[14]*i*r+t[15]*i*o},y=t=&gt;{let e=[],s=[],r=[];for(let s=0;s&lt;4;++s)e[s]=[],e[s][0]=n(t[0][s],t[1][s],t[2][s],t[3][s]),e[s][1]=[],e[s][1].push(...n(...e[s][0][0])),e[s][1].push(...n(...e[s][0][1])),e[s][2]=[],e[s][2].push(...n(...e[s][1][0])),e[s][2].push(...n(...e[s][1][1])),e[s][2].push(...n(...e[s][1][2])),e[s][2].push(...n(...e[s][1][3]));for(let t=0;t&lt;8;++t){s[t]=[];for(let r=0;r&lt;4;++r)s[t][r]=[],s[t][r][0]=n(e[0][2][t][r],e[1][2][t][r],e[2][2][t][r],e[3][2][t][r]),s[t][r][1]=[],s[t][r][1].push(...n(...s[t][r][0][0])),s[t][r][1].push(...n(...s[t][r][0][1])),s[t][r][2]=[],s[t][r][2].push(...n(...s[t][r][1][0])),s[t][r][2].push(...n(...s[t][r][1][1])),s[t][r][2].push(...n(...s[t][r][1][2])),s[t][r][2].push(...n(...s[t][r][1][3]))}for(let t=0;t&lt;8;++t){r[t]=[];for(let e=0;e&lt;8;++e)r[t][e]=[],r[t][e][0]=s[t][0][2][e],r[t][e][1]=s[t][1][2][e],r[t][e][2]=s[t][2][2][e],r[t][e][3]=s[t][3][2][e]}return r};class x{constructor(t,e){this.x=t||0,this.y=e||0}toString(){return`(x=${this.x}, y=${this.y})`}clone(){return new x(this.x,this.y)}add(t){return new x(this.x+t.x,this.y+t.y)}scale(t){return void 0===t.x?new x(this.x*t,this.y*t):new x(this.x*t.x,this.y*t.y)}distSquared(t){let e=this.x-t.x,s=this.y-t.y;return e*e+s*s}transform(t){let e=this.x*t.a+this.y*t.c+t.e,s=this.x*t.b+this.y*t.d+t.f;return new x(e,s)}}class g{constructor(t,e,s,r,n,o){void 0===t?(this.a=1,this.b=0,this.c=0,this.d=1,this.e=0,this.f=0):(this.a=t,this.b=e,this.c=s,this.d=r,this.e=n,this.f=o)}toString(){return`affine: ${this.a} ${this.c} ${this.e} \n       ${this.b} ${this.d} ${this.f}`}append(t){t instanceof g||console.error(&quot;mesh.js: argument to Affine.append is not affine!&quot;);let e=this.a*t.a+this.c*t.b,s=this.b*t.a+this.d*t.b,r=this.a*t.c+this.c*t.d,n=this.b*t.c+this.d*t.d,o=this.a*t.e+this.c*t.f+this.e,i=this.b*t.e+this.d*t.f+this.f;return new g(e,s,r,n,o,i)}}class w{constructor(t,e){this.nodes=t,this.colors=e}paintCurve(t,e){if(o(this.nodes)&gt;r){const s=n(...this.nodes);let r=[[],[]],o=[[],[]];for(let t=0;t&lt;4;++t)r[0][t]=this.colors[0][t],r[1][t]=(this.colors[0][t]+this.colors[1][t])/2,o[0][t]=r[1][t],o[1][t]=this.colors[1][t];let i=new w(s[0],r),a=new w(s[1],o);i.paintCurve(t,e),a.paintCurve(t,e)}else{let s=Math.round(this.nodes[0].x);if(s&gt;=0&amp;&amp;s&lt;e){let r=4*(~~this.nodes[0].y*e+s);t[r]=Math.round(this.colors[0][0]),t[r+1]=Math.round(this.colors[0][1]),t[r+2]=Math.round(this.colors[0][2]),t[r+3]=Math.round(this.colors[0][3])}}}}class m{constructor(t,e){this.nodes=t,this.colors=e}split(){let t=[[],[],[],[]],e=[[],[],[],[]],s=[[[],[]],[[],[]]],r=[[[],[]],[[],[]]];for(let s=0;s&lt;4;++s){const r=n(this.nodes[0][s],this.nodes[1][s],this.nodes[2][s],this.nodes[3][s]);t[0][s]=r[0][0],t[1][s]=r[0][1],t[2][s]=r[0][2],t[3][s]=r[0][3],e[0][s]=r[1][0],e[1][s]=r[1][1],e[2][s]=r[1][2],e[3][s]=r[1][3]}for(let t=0;t&lt;4;++t)s[0][0][t]=this.colors[0][0][t],s[0][1][t]=this.colors[0][1][t],s[1][0][t]=(this.colors[0][0][t]+this.colors[1][0][t])/2,s[1][1][t]=(this.colors[0][1][t]+this.colors[1][1][t])/2,r[0][0][t]=s[1][0][t],r[0][1][t]=s[1][1][t],r[1][0][t]=this.colors[1][0][t],r[1][1][t]=this.colors[1][1][t];return[new m(t,s),new m(e,r)]}paint(t,e){let s,n=!1;for(let t=0;t&lt;4;++t)if((s=o([this.nodes[0][t],this.nodes[1][t],this.nodes[2][t],this.nodes[3][t]]))&gt;r){n=!0;break}if(n){let s=this.split();s[0].paint(t,e),s[1].paint(t,e)}else{new w([...this.nodes[0]],[...this.colors[0]]).paintCurve(t,e)}}}class b{constructor(t){this.readMesh(t),this.type=t.getAttribute(&quot;type&quot;)||&quot;bilinear&quot;}readMesh(t){let e=[[]],s=[[]],r=Number(t.getAttribute(&quot;x&quot;)),n=Number(t.getAttribute(&quot;y&quot;));e[0][0]=new x(r,n);let o=t.children;for(let t=0,r=o.length;t&lt;r;++t){e[3*t+1]=[],e[3*t+2]=[],e[3*t+3]=[],s[t+1]=[];let r=o[t].children;for(let n=0,o=r.length;n&lt;o;++n){let o=r[n].children;for(let r=0,i=o.length;r&lt;i;++r){let i=r;0!==t&amp;&amp;++i;let h,d=o[r].getAttribute(&quot;path&quot;),c=&quot;l&quot;;null!=d&amp;&amp;(c=(h=d.match(/\s*([lLcC])\s*(.*)/))[1]);let u=l(h[2]);switch(c){case&quot;l&quot;:0===i?(e[3*t][3*n+3]=u[0].add(e[3*t][3*n]),e[3*t][3*n+1]=a(e[3*t][3*n],e[3*t][3*n+3]),e[3*t][3*n+2]=a(e[3*t][3*n+3],e[3*t][3*n])):1===i?(e[3*t+3][3*n+3]=u[0].add(e[3*t][3*n+3]),e[3*t+1][3*n+3]=a(e[3*t][3*n+3],e[3*t+3][3*n+3]),e[3*t+2][3*n+3]=a(e[3*t+3][3*n+3],e[3*t][3*n+3])):2===i?(0===n&amp;&amp;(e[3*t+3][3*n+0]=u[0].add(e[3*t+3][3*n+3])),e[3*t+3][3*n+1]=a(e[3*t+3][3*n],e[3*t+3][3*n+3]),e[3*t+3][3*n+2]=a(e[3*t+3][3*n+3],e[3*t+3][3*n])):(e[3*t+1][3*n]=a(e[3*t][3*n],e[3*t+3][3*n]),e[3*t+2][3*n]=a(e[3*t+3][3*n],e[3*t][3*n]));break;case&quot;L&quot;:0===i?(e[3*t][3*n+3]=u[0],e[3*t][3*n+1]=a(e[3*t][3*n],e[3*t][3*n+3]),e[3*t][3*n+2]=a(e[3*t][3*n+3],e[3*t][3*n])):1===i?(e[3*t+3][3*n+3]=u[0],e[3*t+1][3*n+3]=a(e[3*t][3*n+3],e[3*t+3][3*n+3]),e[3*t+2][3*n+3]=a(e[3*t+3][3*n+3],e[3*t][3*n+3])):2===i?(0===n&amp;&amp;(e[3*t+3][3*n+0]=u[0]),e[3*t+3][3*n+1]=a(e[3*t+3][3*n],e[3*t+3][3*n+3]),e[3*t+3][3*n+2]=a(e[3*t+3][3*n+3],e[3*t+3][3*n])):(e[3*t+1][3*n]=a(e[3*t][3*n],e[3*t+3][3*n]),e[3*t+2][3*n]=a(e[3*t+3][3*n],e[3*t][3*n]));break;case&quot;c&quot;:0===i?(e[3*t][3*n+1]=u[0].add(e[3*t][3*n]),e[3*t][3*n+2]=u[1].add(e[3*t][3*n]),e[3*t][3*n+3]=u[2].add(e[3*t][3*n])):1===i?(e[3*t+1][3*n+3]=u[0].add(e[3*t][3*n+3]),e[3*t+2][3*n+3]=u[1].add(e[3*t][3*n+3]),e[3*t+3][3*n+3]=u[2].add(e[3*t][3*n+3])):2===i?(e[3*t+3][3*n+2]=u[0].add(e[3*t+3][3*n+3]),e[3*t+3][3*n+1]=u[1].add(e[3*t+3][3*n+3]),0===n&amp;&amp;(e[3*t+3][3*n+0]=u[2].add(e[3*t+3][3*n+3]))):(e[3*t+2][3*n]=u[0].add(e[3*t+3][3*n]),e[3*t+1][3*n]=u[1].add(e[3*t+3][3*n]));break;case&quot;C&quot;:0===i?(e[3*t][3*n+1]=u[0],e[3*t][3*n+2]=u[1],e[3*t][3*n+3]=u[2]):1===i?(e[3*t+1][3*n+3]=u[0],e[3*t+2][3*n+3]=u[1],e[3*t+3][3*n+3]=u[2]):2===i?(e[3*t+3][3*n+2]=u[0],e[3*t+3][3*n+1]=u[1],0===n&amp;&amp;(e[3*t+3][3*n+0]=u[2])):(e[3*t+2][3*n]=u[0],e[3*t+1][3*n]=u[1]);break;default:console.error(&quot;mesh.js: &quot;+c+&quot; invalid path type.&quot;)}if(0===t&amp;&amp;0===n||r&gt;0){let e=window.getComputedStyle(o[r]).stopColor.match(/^rgb\s*\(\s*(\d+)\s*,\s*(\d+)\s*,\s*(\d+)\s*\)$/i),a=window.getComputedStyle(o[r]).stopOpacity,h=255;a&amp;&amp;(h=Math.floor(255*a)),e&amp;&amp;(0===i?(s[t][n]=[],s[t][n][0]=Math.floor(e[1]),s[t][n][1]=Math.floor(e[2]),s[t][n][2]=Math.floor(e[3]),s[t][n][3]=h):1===i?(s[t][n+1]=[],s[t][n+1][0]=Math.floor(e[1]),s[t][n+1][1]=Math.floor(e[2]),s[t][n+1][2]=Math.floor(e[3]),s[t][n+1][3]=h):2===i?(s[t+1][n+1]=[],s[t+1][n+1][0]=Math.floor(e[1]),s[t+1][n+1][1]=Math.floor(e[2]),s[t+1][n+1][2]=Math.floor(e[3]),s[t+1][n+1][3]=h):3===i&amp;&amp;(s[t+1][n]=[],s[t+1][n][0]=Math.floor(e[1]),s[t+1][n][1]=Math.floor(e[2]),s[t+1][n][2]=Math.floor(e[3]),s[t+1][n][3]=h))}}e[3*t+1][3*n+1]=new x,e[3*t+1][3*n+2]=new x,e[3*t+2][3*n+1]=new x,e[3*t+2][3*n+2]=new x,e[3*t+1][3*n+1].x=(-4*e[3*t][3*n].x+6*(e[3*t][3*n+1].x+e[3*t+1][3*n].x)+-2*(e[3*t][3*n+3].x+e[3*t+3][3*n].x)+3*(e[3*t+3][3*n+1].x+e[3*t+1][3*n+3].x)+-1*e[3*t+3][3*n+3].x)/9,e[3*t+1][3*n+2].x=(-4*e[3*t][3*n+3].x+6*(e[3*t][3*n+2].x+e[3*t+1][3*n+3].x)+-2*(e[3*t][3*n].x+e[3*t+3][3*n+3].x)+3*(e[3*t+3][3*n+2].x+e[3*t+1][3*n].x)+-1*e[3*t+3][3*n].x)/9,e[3*t+2][3*n+1].x=(-4*e[3*t+3][3*n].x+6*(e[3*t+3][3*n+1].x+e[3*t+2][3*n].x)+-2*(e[3*t+3][3*n+3].x+e[3*t][3*n].x)+3*(e[3*t][3*n+1].x+e[3*t+2][3*n+3].x)+-1*e[3*t][3*n+3].x)/9,e[3*t+2][3*n+2].x=(-4*e[3*t+3][3*n+3].x+6*(e[3*t+3][3*n+2].x+e[3*t+2][3*n+3].x)+-2*(e[3*t+3][3*n].x+e[3*t][3*n+3].x)+3*(e[3*t][3*n+2].x+e[3*t+2][3*n].x)+-1*e[3*t][3*n].x)/9,e[3*t+1][3*n+1].y=(-4*e[3*t][3*n].y+6*(e[3*t][3*n+1].y+e[3*t+1][3*n].y)+-2*(e[3*t][3*n+3].y+e[3*t+3][3*n].y)+3*(e[3*t+3][3*n+1].y+e[3*t+1][3*n+3].y)+-1*e[3*t+3][3*n+3].y)/9,e[3*t+1][3*n+2].y=(-4*e[3*t][3*n+3].y+6*(e[3*t][3*n+2].y+e[3*t+1][3*n+3].y)+-2*(e[3*t][3*n].y+e[3*t+3][3*n+3].y)+3*(e[3*t+3][3*n+2].y+e[3*t+1][3*n].y)+-1*e[3*t+3][3*n].y)/9,e[3*t+2][3*n+1].y=(-4*e[3*t+3][3*n].y+6*(e[3*t+3][3*n+1].y+e[3*t+2][3*n].y)+-2*(e[3*t+3][3*n+3].y+e[3*t][3*n].y)+3*(e[3*t][3*n+1].y+e[3*t+2][3*n+3].y)+-1*e[3*t][3*n+3].y)/9,e[3*t+2][3*n+2].y=(-4*e[3*t+3][3*n+3].y+6*(e[3*t+3][3*n+2].y+e[3*t+2][3*n+3].y)+-2*(e[3*t+3][3*n].y+e[3*t][3*n+3].y)+3*(e[3*t][3*n+2].y+e[3*t+2][3*n].y)+-1*e[3*t][3*n].y)/9}}this.nodes=e,this.colors=s}paintMesh(t,e){let s=(this.nodes.length-1)/3,r=(this.nodes[0].length-1)/3;if(&quot;bilinear&quot;===this.type||s&lt;2||r&lt;2){let n;for(let o=0;o&lt;s;++o)for(let s=0;s&lt;r;++s){let r=[];for(let t=3*o,e=3*o+4;t&lt;e;++t)r.push(this.nodes[t].slice(3*s,3*s+4));let i=[];i.push(this.colors[o].slice(s,s+2)),i.push(this.colors[o+1].slice(s,s+2)),(n=new m(r,i)).paint(t,e)}}else{let n,o,a,h,l,d,u;const x=s,g=r;s++,r++;let w=new Array(s);for(let t=0;t&lt;s;++t){w[t]=new Array(r);for(let e=0;e&lt;r;++e)w[t][e]=[],w[t][e][0]=this.nodes[3*t][3*e],w[t][e][1]=this.colors[t][e]}for(let t=0;t&lt;s;++t)for(let e=0;e&lt;r;++e)0!==t&amp;&amp;t!==x&amp;&amp;(n=i(w[t-1][e][0],w[t][e][0]),o=i(w[t+1][e][0],w[t][e][0]),w[t][e][2]=c(w[t-1][e][1],w[t][e][1],w[t+1][e][1],n,o)),0!==e&amp;&amp;e!==g&amp;&amp;(n=i(w[t][e-1][0],w[t][e][0]),o=i(w[t][e+1][0],w[t][e][0]),w[t][e][3]=c(w[t][e-1][1],w[t][e][1],w[t][e+1][1],n,o));for(let t=0;t&lt;r;++t){w[0][t][2]=[],w[x][t][2]=[];for(let e=0;e&lt;4;++e)n=i(w[1][t][0],w[0][t][0]),o=i(w[x][t][0],w[x-1][t][0]),w[0][t][2][e]=n&gt;0?2*(w[1][t][1][e]-w[0][t][1][e])/n-w[1][t][2][e]:0,w[x][t][2][e]=o&gt;0?2*(w[x][t][1][e]-w[x-1][t][1][e])/o-w[x-1][t][2][e]:0}for(let t=0;t&lt;s;++t){w[t][0][3]=[],w[t][g][3]=[];for(let e=0;e&lt;4;++e)n=i(w[t][1][0],w[t][0][0]),o=i(w[t][g][0],w[t][g-1][0]),w[t][0][3][e]=n&gt;0?2*(w[t][1][1][e]-w[t][0][1][e])/n-w[t][1][3][e]:0,w[t][g][3][e]=o&gt;0?2*(w[t][g][1][e]-w[t][g-1][1][e])/o-w[t][g-1][3][e]:0}for(let s=0;s&lt;x;++s)for(let r=0;r&lt;g;++r){let n=i(w[s][r][0],w[s+1][r][0]),o=i(w[s][r+1][0],w[s+1][r+1][0]),c=i(w[s][r][0],w[s][r+1][0]),x=i(w[s+1][r][0],w[s+1][r+1][0]),g=[[],[],[],[]];for(let t=0;t&lt;4;++t){(d=[])[0]=w[s][r][1][t],d[1]=w[s+1][r][1][t],d[2]=w[s][r+1][1][t],d[3]=w[s+1][r+1][1][t],d[4]=w[s][r][2][t]*n,d[5]=w[s+1][r][2][t]*n,d[6]=w[s][r+1][2][t]*o,d[7]=w[s+1][r+1][2][t]*o,d[8]=w[s][r][3][t]*c,d[9]=w[s+1][r][3][t]*x,d[10]=w[s][r+1][3][t]*c,d[11]=w[s+1][r+1][3][t]*x,d[12]=0,d[13]=0,d[14]=0,d[15]=0,u=f(d);for(let e=0;e&lt;9;++e){g[t][e]=[];for(let s=0;s&lt;9;++s)g[t][e][s]=p(u,e/8,s/8),g[t][e][s]&gt;255?g[t][e][s]=255:g[t][e][s]&lt;0&amp;&amp;(g[t][e][s]=0)}}h=[];for(let t=3*s,e=3*s+4;t&lt;e;++t)h.push(this.nodes[t].slice(3*r,3*r+4));l=y(h);for(let s=0;s&lt;8;++s)for(let r=0;r&lt;8;++r)(a=new m(l[s][r],[[[g[0][s][r],g[1][s][r],g[2][s][r],g[3][s][r]],[g[0][s][r+1],g[1][s][r+1],g[2][s][r+1],g[3][s][r+1]]],[[g[0][s+1][r],g[1][s+1][r],g[2][s+1][r],g[3][s+1][r]],[g[0][s+1][r+1],g[1][s+1][r+1],g[2][s+1][r+1],g[3][s+1][r+1]]]])).paint(t,e)}}}transform(t){if(t instanceof x)for(let e=0,s=this.nodes.length;e&lt;s;++e)for(let s=0,r=this.nodes[0].length;s&lt;r;++s)this.nodes[e][s]=this.nodes[e][s].add(t);else if(t instanceof g)for(let e=0,s=this.nodes.length;e&lt;s;++e)for(let s=0,r=this.nodes[0].length;s&lt;r;++s)this.nodes[e][s]=this.nodes[e][s].transform(t)}scale(t){for(let e=0,s=this.nodes.length;e&lt;s;++e)for(let s=0,r=this.nodes[0].length;s&lt;r;++s)this.nodes[e][s]=this.nodes[e][s].scale(t)}}document.querySelectorAll(&quot;rect,circle,ellipse,path,text&quot;).forEach((r,n)=&gt;{let o=r.getAttribute(&quot;id&quot;);o||(o=&quot;patchjs_shape&quot;+n,r.setAttribute(&quot;id&quot;,o));const i=r.style.fill.match(/^url\(\s*&quot;?\s*#([^\s&quot;]+)&quot;?\s*\)/),a=r.style.stroke.match(/^url\(\s*&quot;?\s*#([^\s&quot;]+)&quot;?\s*\)/);if(i&amp;&amp;i[1]){const a=document.getElementById(i[1]);if(a&amp;&amp;&quot;meshgradient&quot;===a.nodeName){const i=r.getBBox();let l=document.createElementNS(s,&quot;canvas&quot;);d(l,{width:i.width,height:i.height});const c=l.getContext(&quot;2d&quot;);let u=c.createImageData(i.width,i.height);const f=new b(a);&quot;objectBoundingBox&quot;===a.getAttribute(&quot;gradientUnits&quot;)&amp;&amp;f.scale(new x(i.width,i.height));const p=a.getAttribute(&quot;gradientTransform&quot;);null!=p&amp;&amp;f.transform(h(p)),&quot;userSpaceOnUse&quot;===a.getAttribute(&quot;gradientUnits&quot;)&amp;&amp;f.transform(new x(-i.x,-i.y)),f.paintMesh(u.data,l.width),c.putImageData(u,0,0);const y=document.createElementNS(t,&quot;image&quot;);d(y,{width:i.width,height:i.height,x:i.x,y:i.y});let g=l.toDataURL();y.setAttributeNS(e,&quot;xlink:href&quot;,g),r.parentNode.insertBefore(y,r),r.style.fill=&quot;none&quot;;const w=document.createElementNS(t,&quot;use&quot;);w.setAttributeNS(e,&quot;xlink:href&quot;,&quot;#&quot;+o);const m=&quot;patchjs_clip&quot;+n,M=document.createElementNS(t,&quot;clipPath&quot;);M.setAttribute(&quot;id&quot;,m),M.appendChild(w),r.parentElement.insertBefore(M,r),y.setAttribute(&quot;clip-path&quot;,&quot;url(#&quot;+m+&quot;)&quot;),u=null,l=null,g=null}}if(a&amp;&amp;a[1]){const o=document.getElementById(a[1]);if(o&amp;&amp;&quot;meshgradient&quot;===o.nodeName){const i=parseFloat(r.style.strokeWidth.slice(0,-2))*(parseFloat(r.style.strokeMiterlimit)||parseFloat(r.getAttribute(&quot;stroke-miterlimit&quot;))||1),a=r.getBBox(),l=Math.trunc(a.width+i),c=Math.trunc(a.height+i),u=Math.trunc(a.x-i/2),f=Math.trunc(a.y-i/2);let p=document.createElementNS(s,&quot;canvas&quot;);d(p,{width:l,height:c});const y=p.getContext(&quot;2d&quot;);let g=y.createImageData(l,c);const w=new b(o);&quot;objectBoundingBox&quot;===o.getAttribute(&quot;gradientUnits&quot;)&amp;&amp;w.scale(new x(l,c));const m=o.getAttribute(&quot;gradientTransform&quot;);null!=m&amp;&amp;w.transform(h(m)),&quot;userSpaceOnUse&quot;===o.getAttribute(&quot;gradientUnits&quot;)&amp;&amp;w.transform(new x(-u,-f)),w.paintMesh(g.data,p.width),y.putImageData(g,0,0);const M=document.createElementNS(t,&quot;image&quot;);d(M,{width:l,height:c,x:0,y:0});let S=p.toDataURL();M.setAttributeNS(e,&quot;xlink:href&quot;,S);const k=&quot;pattern_clip&quot;+n,A=document.createElementNS(t,&quot;pattern&quot;);d(A,{id:k,patternUnits:&quot;userSpaceOnUse&quot;,width:l,height:c,x:u,y:f}),A.appendChild(M),o.parentNode.appendChild(A),r.style.stroke=&quot;url(#&quot;+k+&quot;)&quot;,g=null,p=null,S=null}}})}();
</script>
</svg>
